# xmcd
#
# Track frame offsets: 
#        183
#        8803
#        19773
#        30940
#        45630
#        58100
#        70253
#        82188
#        94183
#        107520
#        120408
#        132390
#        143270
#        153245
#        164685
#        173943
#        186710
#        197800
#        209713
#        220590
#        231695
#        245368
#        258320
#        270805
#        282035
#        295283
#
# Disc length: 4092 seconds
#
# Revision: 3
# Processed by: cddbd v1.5.2PL0 Copyright (c) Steve Scherf et al.
# Submitted via: ExactAudioCopy v1.0b3
#
DISCID=7b0ffa1a
DTITLE=Lefty Frizzell - Life's Like Poetry - Disc 07 of 12
DYEAR=1992
DGENRE=Country
TTITLE0=It's Bad (When It's Thataway) (1965)
TTITLE1=I Don't Trust You Anymore (1965)
TTITLE2=A Little Unfair (1965)
TTITLE3=Woman Let Me Sing You A Song (1965)
TTITLE4=Preparations To Be Blue (1965)
TTITLE5=Stranger (1965)
TTITLE6=Love Looks Good On You (1965)
TTITLE7=Mama (1966)
TTITLE8=It's Hard To Please You (recorded 1966 - released 1992)
TTITLE9=You Don't Want Me To Get Well (recorded 1966 - released 1992)
TTITLE10=Writing On The Wall (1966)
TTITLE11=I Just Couldn`t See The Forest (For The Trees) (1966)
TTITLE12=I'm Not Guilty (recorded 1966 - released 1992)
TTITLE13=It Couldn't Happen To A Nicer Guy (recorded 1966 - released 1
TTITLE13=992)
TTITLE14=Everything Keeps Coming Back (But You) (1966)
TTITLE15=Heart (Don't Love Her Anymore) (recorded 1966 - released 1967
TTITLE15=)
TTITLE16=You Don't Have To Be Present To Win (recorded 1966 - released
TTITLE16=1967)
TTITLE17=My Feet Are Getting Cold (recorded 1966 - released 1992)
TTITLE18=Is There Anything I Can Do (recorded 1966 - released 1992)
TTITLE19=The Old Gang's Gone (recorded 1966 - released 1992)
TTITLE20=A Song From A Lonely Heart (recorded 1966 - released 1967)
TTITLE21=You Gotta Be Puttin' Me On (recorded 1966 - released 1967)
TTITLE22=There In The Mirror (recorded 1966 - released 1967)
TTITLE23=Get This Stranger Out Of Me (1967)
TTITLE24=Money Tree (1967)
TTITLE25=Hobo's Pride (1967)
EXTD=Life's Like Poetry - Disc 07 of 12\n© 1992 Bear Family Records
EXTT0=
EXTT1=
EXTT2=
EXTT3=
EXTT4=
EXTT5=
EXTT6=
EXTT7=
EXTT8=
EXTT9=
EXTT10=
EXTT11=
EXTT12=
EXTT13=
EXTT14=
EXTT15=
EXTT16=
EXTT17=
EXTT18=
EXTT19=
EXTT20=
EXTT21=
EXTT22=
EXTT23=
EXTT24=
EXTT25=
PLAYORDER=
